{"title":"Gladiator (2000) EXTENDED BRRip XviD - DiGrX","uid":9206043,"size":2736353215,"categoryP":"video","categoryS":"movies","magnet":"?xt=urn:btih:f3530783c0e924e738e8f1d9b2c53ab32f6fd1ee&amp;dn=Gladiator+%282000%29+EXTENDED+BRRip+XviD+-+DiGrX&amp;tr=udp%3A%2F%2Ftracker.openbittorrent.com%3A80&amp;tr=udp%3A%2F%2Fopen.demonii.com%3A1337&amp;tr=udp%3A%2F%2Ftracker.coppersurfer.tk%3A6969&amp;tr=udp%3A%2F%2Fexodus.desync.com%3A6969","seeders":2,"leechers":0,"uploader":"dimigeor","files":5,"time":1384698937,"description":"A DiGrX release\n\n\nGladiator (2000) EXTENDED WS BRRip XviD - DiGrX\n\nExtended Director's Cut - WideScreen - Remastered\n\n\nGeneral\nFormat                                   : AVI\nFormat/Info                              : Audio Video Interleave\nFormat profile                           : OpenDML\nFile size                                : 2.55 GiB\nDuration                                 : 2h 50mn\nOverall bit rate mode                    : Variable\nOverall bit rate                         : 2 134 Kbps\nWriting application                      : MEncoder r33883\nWriting library                          : MPlayer\n\nVideo\nID                                       : 0\nFormat                                   : MPEG-4 Visual\nFormat profile                           : Simple@L3\nFormat settings, BVOP                    : No\nFormat settings, QPel                    : No\nFormat settings, GMC                     : No warppoints\nFormat settings, Matrix                  : Default (H.263)\nCodec ID                                 : XVID\nCodec ID/Hint                            : XviD\nDuration                                 : 2h 50mn\nBit rate                                 : 1 999 Kbps\nWidth                                    : 1 120 pixels\nHeight                                   : 480 pixels\nDisplay aspect ratio                     : 2.35:1\nFrame rate                               : 23.976 fps\nColor space                              : YUV\nChroma subsampling                       : 4:2:0\nBit depth                                : 8 bits\nScan type                                : Progressive\nCompression mode                         : Lossy\nBits/(Pixel*Frame)                       : 0.155\nStream size                              : 2.39 GiB (94%)\nWriting library                          : XviD 63\n\nAudio\nID                                       : 1\nFormat                                   : MPEG Audio\nFormat version                           : Version 1\nFormat profile                           : Layer 3\nMode                                     : Joint stereo\nMode extension                           : MS Stereo\nCodec ID                                 : 55\nCodec ID/Hint                            : MP3\nDuration                                 : 2h 50mn\nBit rate mode                            : Variable\nBit rate                                 : 123 Kbps\nChannel(s)                               : 2 channels\nSampling rate                            : 48.0 KHz\nCompression mode                         : Lossy\nStream size                              : 150 MiB (6%)\nAlignment                                : Aligned on interleaves\nInterleave, duration                     : 24 ms (0.58 video frame)\nInterleave, preload duration             : 131 ms\nWriting library                          : LAME3.98.4\n","torrent":{"xt":"urn:btih:f3530783c0e924e738e8f1d9b2c53ab32f6fd1ee","amp;dn":"Gladiator+%282000%29+EXTENDED+BRRip+XviD+-+DiGrX","amp;tr":["udp%3A%2F%2Ftracker.openbittorrent.com%3A80","udp%3A%2F%2Fopen.demonii.com%3A1337","udp%3A%2F%2Ftracker.coppersurfer.tk%3A6969","udp%3A%2F%2Fexodus.desync.com%3A6969"],"infoHash":"f3530783c0e924e738e8f1d9b2c53ab32f6fd1ee","infoHashBuffer":{"type":"Buffer","data":[243,83,7,131,192,233,36,231,56,232,241,217,178,197,58,179,47,111,209,238]},"announce":[],"urlList":[]}}